<svg version="1.1" viewBox="0.0 0.0 96.0 96.0" fill="none" stroke="none" stroke-linecap="square" stroke-miterlimit="10" xmlns:xlink="http://www.w3.org/1999/xlink" xmlns="http://www.w3.org/2000/svg"><clipPath id="p.0"><path d="m0 0l96.0 0l0 96.0l-96.0 0l0 -96.0z" clip-rule="nonzero"/></clipPath><g clip-path="url(#p.0)"><path fill="#000000" fill-opacity="0.0" d="m0 0l96.0 0l0 96.0l-96.0 0z" fill-rule="evenodd"/><path fill="#666666" d="m2.1732283 48.0l0 0c0 -24.891953 20.517345 -45.070866 45.82677 -45.070866l0 0c12.154015 0 23.810234 4.748524 32.40442 13.200951c8.5941925 8.452427 13.422356 19.916378 13.422356 31.869915l0 0c0 24.891953 -20.51735 45.07087 -45.826775 45.07087l0 0c-25.309427 0 -45.82677 -20.178917 -45.82677 -45.07087z" fill-rule="evenodd"/><path fill="#ffffff" d="m11.6692915 38.519684l72.66142 0l0 18.960632l-72.66142 0z" fill-rule="evenodd"/></g></svg>